<?xml version="1.0" encoding="UTF-8" standalone="no"?>
<!DOCTYPE svg PUBLIC "-//W3C//DTD SVG 1.1//EN" "http://www.w3.org/Graphics/SVG/1.1/DTD/svg11.dtd">
<svg width="100%" height="100%" viewBox="0 0 4267 4267" version="1.1" xmlns="http://www.w3.org/2000/svg" xmlns:xlink="http://www.w3.org/1999/xlink" xml:space="preserve" xmlns:serif="http://www.serif.com/" style="fill-rule:evenodd;clip-rule:evenodd;stroke-linejoin:round;stroke-miterlimit:2;">
    <g id="_1---Layer" serif:id="1 – Layer" transform="matrix(4.16667,0,0,4.16667,0,0)">
        <g id="brain-svgrepo-com--3-.svg" serif:id="brain-svgrepo-com (3).svg" transform="matrix(1.02249,0,0,1.02249,512,512)">
            <g id="_1---Layer1" serif:id="1 – Layer">
                <g id="brain-svgrepo-com--3-.svg1" serif:id="brain-svgrepo-com (3).svg" transform="matrix(1,0,0,1,-400,-400)">
                    <clipPath id="_clip1">
                        <rect x="0" y="0" width="800" height="800"/>
                    </clipPath>
                    <g clip-path="url(#_clip1)">
                        <g>
                            <path d="M758.531,386.177C758.531,409.241 751.362,430.654 739.157,448.337C751.841,466.673 758.531,488.062 758.531,510.583C758.531,550.476 736.783,587.027 702.348,606.3C702.941,611.228 703.24,616.2 703.24,621.166C703.24,674.977 668.138,722.554 617.21,738.77C595.057,776.683 554.704,800 510.583,800C462.212,800 420.27,772.041 400,731.449C379.73,772.041 337.788,800 289.417,800C245.296,800 204.943,776.683 182.79,738.77C131.862,722.556 96.76,674.979 96.76,621.166C96.76,616.2 97.059,611.228 97.652,606.3C63.217,587.027 41.469,550.476 41.469,510.583C41.469,488.062 48.159,466.673 60.843,448.337C48.638,430.654 41.469,409.241 41.469,386.177C41.469,356.674 53.253,328.715 74.082,308.154C70.782,297.598 69.114,286.683 69.114,275.594C69.114,222.248 107.39,177.695 157.916,167.898C154.054,158.272 152.052,147.953 152.052,137.365C152.052,103.573 172.584,74.493 201.825,61.925C250.542,23.124 303.824,0 344.708,0C367.435,0 387.589,11.176 400,28.309C412.411,11.176 432.565,0 455.292,0C496.176,0 549.458,23.124 598.175,61.925C627.416,74.493 647.948,103.573 647.948,137.365C647.948,147.953 645.946,158.272 642.084,167.898C692.61,177.695 730.886,222.248 730.886,275.594C730.886,286.683 729.216,297.6 725.918,308.154C746.747,328.715 758.531,356.674 758.531,386.177Z" style="fill:rgb(236,135,192);stroke:rgb(215,112,173);stroke-width:1px;"/>
                        </g>
                    </g>
                </g>
                <g id="brain-svgrepo-com--3-.svg2" serif:id="brain-svgrepo-com (3).svg">
                </g>
            </g>
        </g>
    </g>
    <g id="_2---Layer" serif:id="2 – Layer">
    </g>
    <g id="_3---Layer" serif:id="3 – Layer">
    </g>
    <g id="_4---Layer" serif:id="4 – Layer">
    </g>
</svg>
