<?xml version="1.0" encoding="UTF-8" standalone="no"?>
<!DOCTYPE svg PUBLIC "-//W3C//DTD SVG 1.1//EN" "http://www.w3.org/Graphics/SVG/1.1/DTD/svg11.dtd">
<svg width="100%" height="100%" viewBox="0 0 99 123" version="1.1" xmlns="http://www.w3.org/2000/svg" xmlns:xlink="http://www.w3.org/1999/xlink" xml:space="preserve" xmlns:serif="http://www.serif.com/" style="fill-rule:evenodd;clip-rule:evenodd;stroke-linejoin:round;stroke-miterlimit:2;">
    <path d="M63.49,2.71C75.08,-3.33 89.43,1.07 95.53,12.54C101.63,24.01 97.18,38.2 85.59,44.24L76.06,49.25C84.27,49.55 92.1,54.06 96.2,61.77C102.3,73.24 97.86,87.43 86.26,93.47L35.44,120.17C23.85,126.21 9.5,121.81 3.4,110.34C-2.7,98.87 1.75,84.68 13.34,78.64L22.87,73.63C14.66,73.33 6.83,68.82 2.73,61.11C-3.37,49.64 1.08,35.45 12.67,29.41L63.49,2.71ZM36.06,42.53L66.82,61.52L36.06,80.42L36.06,42.53Z" style="fill:rgb(244,4,7);fill-rule:nonzero;"/>
    <path d="M36.06,42.53L36.06,80.42L66.82,61.52L36.06,42.53Z" style="fill:white;fill-rule:nonzero;"/>
</svg>
